<svg width="304" height="305" viewBox="0 0 304 305" fill="none" xmlns="http://www.w3.org/2000/svg">
<path d="M124.5 152V223.4C124.5 236.5 118.5 249 107.8 256.6C95.9 265.1 78.8 267.3 60 237" stroke="url(#paint0_linear)" stroke-width="7" stroke-miterlimit="10" stroke-linecap="round"/>
<path d="M152 25V193.9C152 196.7 154.3 199 157.1 199H246" stroke="url(#paint1_linear)" stroke-width="5" stroke-miterlimit="10" stroke-linecap="round"/>
<path d="M20.5 152H159" stroke="#AA5CA4" stroke-width="7" stroke-miterlimit="10" stroke-linecap="round"/>
<path d="M119.2 298.4C128.7 300.5 138.5 301.7 148.5 302V289.5H159V301.8C236.6 298.2 298.8 235.7 301.9 158H289.5V152H302C302 107.5 282.6 67.5 251.8 40H238V31.2H241C216.1 12.9 185.3 2 152 2C127.6 2 104.5 7.9 84.1 18.2V53H78.5V21.2C59.2 32.1 42.6 47.1 29.8 65H49V82H19.3C8.3 102.9 2 126.7 2 152C2 179.9 9.6 205.9 22.8 228.3" stroke="url(#paint2_linear)" stroke-width="4" stroke-miterlimit="10" stroke-linecap="round"/>
<defs>
<linearGradient id="paint0_linear" x1="56.5" y1="207.056" x2="128" y2="207.056" gradientUnits="userSpaceOnUse">
<stop stop-color="#92278F"/>
<stop offset="0.1182" stop-color="#90298E"/>
<stop offset="0.2428" stop-color="#8E338C"/>
<stop offset="0.3705" stop-color="#8B3F8A"/>
<stop offset="0.5003" stop-color="#864C87"/>
<stop offset="0.6317" stop-color="#7E5580"/>
<stop offset="0.7645" stop-color="#705974"/>
<stop offset="0.8958" stop-color="#5C5460"/>
<stop offset="1" stop-color="#414142"/>
</linearGradient>
<linearGradient id="paint1_linear" x1="149.5" y1="112" x2="248.5" y2="112" gradientUnits="userSpaceOnUse">
<stop stop-color="#662D91"/>
<stop offset="1"/>
</linearGradient>
<linearGradient id="paint2_linear" x1="-3.39746e-08" y1="151.999" x2="304" y2="151.999" gradientUnits="userSpaceOnUse">
<stop stop-color="#EE2B7B" stop-opacity="0.5"/>
<stop offset="1" stop-color="#662D91"/>
</linearGradient>
</defs>
</svg>
